<svg width="24" height="24" viewBox="0 0 24 24" fill="none" xmlns="http://www.w3.org/2000/svg">
<path d="M1.52148 22.418C1.13086 22.418 0.83138 22.3138 0.623047 22.1055C0.421224 21.8971 0.320312 21.6009 0.320312 21.2168V4.72266C0.320312 4.33854 0.421224 4.04232 0.623047 3.83398C0.83138 3.61914 1.13086 3.51172 1.52148 3.51172H3.36719C3.75781 3.51172 4.05404 3.61914 4.25586 3.83398C4.46419 4.04232 4.56836 4.33854 4.56836 4.72266V21.2168C4.56836 21.6009 4.46419 21.8971 4.25586 22.1055C4.05404 22.3138 3.75781 22.418 3.36719 22.418H1.52148ZM6.91211 22.418C6.52148 22.418 6.22201 22.3138 6.01367 22.1055C5.80534 21.8971 5.70117 21.6009 5.70117 21.2168V8.05273C5.70117 7.67513 5.80534 7.38216 6.01367 7.17383C6.22201 6.95898 6.52148 6.85156 6.91211 6.85156H10.8672C11.2578 6.85156 11.554 6.95898 11.7559 7.17383C11.9642 7.38216 12.0684 7.67513 12.0684 8.05273V21.2168C12.0684 21.6009 11.9642 21.8971 11.7559 22.1055C11.554 22.3138 11.2578 22.418 10.8672 22.418H6.91211ZM7.83984 10.3379H9.95898C10.1283 10.3379 10.2682 10.2793 10.3789 10.1621C10.4961 10.0449 10.5547 9.90169 10.5547 9.73242C10.5547 9.56315 10.4961 9.42318 10.3789 9.3125C10.2682 9.19531 10.1283 9.13672 9.95898 9.13672H7.83984C7.66406 9.13672 7.51758 9.19531 7.40039 9.3125C7.2832 9.42318 7.22461 9.56315 7.22461 9.73242C7.22461 9.90169 7.2832 10.0449 7.40039 10.1621C7.51758 10.2793 7.66406 10.3379 7.83984 10.3379ZM7.83984 20.1426H9.95898C10.1283 20.1426 10.2682 20.084 10.3789 19.9668C10.4961 19.8496 10.5547 19.7064 10.5547 19.5371C10.5547 19.3678 10.4961 19.2246 10.3789 19.1074C10.2682 18.9967 10.1283 18.9414 9.95898 18.9414H7.83984C7.66406 18.9414 7.51758 18.9967 7.40039 19.1074C7.2832 19.2246 7.22461 19.3678 7.22461 19.5371C7.22461 19.7064 7.2832 19.8496 7.40039 19.9668C7.51758 20.084 7.66406 20.1426 7.83984 20.1426ZM14.4121 22.418C14.0215 22.418 13.722 22.3138 13.5137 22.1055C13.3118 21.8971 13.2109 21.6009 13.2109 21.2168V2.01758C13.2109 1.63346 13.3118 1.33724 13.5137 1.12891C13.722 0.914062 14.0215 0.806641 14.4121 0.806641H16.8242C17.2148 0.806641 17.5111 0.914062 17.7129 1.12891C17.9212 1.33724 18.0254 1.63346 18.0254 2.01758V21.2168C18.0254 21.6009 17.9212 21.8971 17.7129 22.1055C17.5111 22.3138 17.2148 22.418 16.8242 22.418H14.4121ZM21.0527 22.4668C20.6686 22.5189 20.3626 22.4505 20.1348 22.2617C19.9134 22.0729 19.7799 21.7865 19.7344 21.4023L17.8594 5.20117C17.8203 4.82357 17.8887 4.52083 18.0645 4.29297C18.2467 4.0651 18.5299 3.92513 18.9141 3.87305L20.4766 3.64844C20.8672 3.59635 21.1732 3.66471 21.3945 3.85352C21.6224 4.04232 21.7591 4.32552 21.8047 4.70312L23.6699 20.9043C23.7155 21.2884 23.6471 21.5944 23.4648 21.8223C23.2891 22.0501 23.0091 22.1901 22.625 22.2422L21.0527 22.4668Z" fill="#FFE14D"/>
</svg>
