<svg width="24" height="24" viewBox="0 0 24 24" fill="none" xmlns="http://www.w3.org/2000/svg">
<path d="M4.92969 22.5645C3.9401 22.5645 3.19792 22.3171 2.70312 21.8223C2.20833 21.334 1.96094 20.6016 1.96094 19.625V9.80078C1.96094 8.83073 2.20833 8.10156 2.70312 7.61328C3.19792 7.11849 3.9401 6.87109 4.92969 6.87109H19.0605C20.0436 6.87109 20.7826 7.11849 21.2773 7.61328C21.7786 8.10156 22.0293 8.83073 22.0293 9.80078V19.625C22.0293 20.5951 21.7786 21.3275 21.2773 21.8223C20.7826 22.3171 20.0436 22.5645 19.0605 22.5645H4.92969ZM3.82617 5.29883C3.89779 4.85612 4.05078 4.51758 4.28516 4.2832C4.51953 4.04232 4.88086 3.92188 5.36914 3.92188H18.6309C19.1191 3.92188 19.4772 4.04232 19.7051 4.2832C19.9395 4.51758 20.0957 4.85612 20.1738 5.29883H3.82617ZM5.83789 2.59375C5.86393 2.17708 5.99414 1.86458 6.22852 1.65625C6.4694 1.44141 6.81445 1.33398 7.26367 1.33398H16.7266C17.1823 1.33398 17.5273 1.44141 17.7617 1.65625C17.9961 1.86458 18.1296 2.17708 18.1621 2.59375H5.83789Z" fill="#FFE14D"/>
</svg>
