<svg width="24" height="24" viewBox="0 0 24 24" fill="none" xmlns="http://www.w3.org/2000/svg">
<path d="M1.84375 20.0742V6.92969C1.84375 6.60417 1.91211 6.32422 2.04883 6.08984C2.19206 5.84896 2.41016 5.64714 2.70312 5.48438L7.33203 2.82812C7.41667 2.77604 7.50781 2.72721 7.60547 2.68164C7.70312 2.62956 7.79427 2.58398 7.87891 2.54492V18.7266L3.77734 20.9434C3.47135 21.1126 3.19792 21.1973 2.95703 21.1973C2.60547 21.1973 2.33203 21.0996 2.13672 20.9043C1.94141 20.709 1.84375 20.4323 1.84375 20.0742ZM9.2168 18.541V2.37891C9.30794 2.39844 9.39909 2.42773 9.49023 2.4668C9.58789 2.50586 9.67904 2.55143 9.76367 2.60352L14.5879 5.55273V21.4902C14.5163 21.4707 14.4414 21.4447 14.3633 21.4121C14.2917 21.3796 14.2168 21.3438 14.1387 21.3047L9.2168 18.541ZM15.916 21.4609V5.36719L20.2227 2.97461C20.5286 2.80534 20.8021 2.7207 21.043 2.7207C21.3945 2.7207 21.668 2.81836 21.8633 3.01367C22.0586 3.20898 22.1562 3.48568 22.1562 3.84375V16.998C22.1562 17.3236 22.0846 17.6068 21.9414 17.8477C21.8047 18.082 21.5898 18.2806 21.2969 18.4434L16.209 21.334C16.1634 21.36 16.1146 21.3828 16.0625 21.4023C16.0169 21.4284 15.9681 21.4479 15.916 21.4609Z" fill="#FFE14D"/>
</svg>
